<?xml version="1.0" encoding="UTF-8"?><svg id="katman_2" xmlns="http://www.w3.org/2000/svg" width="123.6mm" height="123.6mm" xmlns:xlink="http://www.w3.org/1999/xlink" viewBox="0 0 350.5 350.5"><defs><style>.cls-1{fill:#fff;}.cls-2{fill:url(#Adsız_degrade_4);stroke:#fff;stroke-width:0px;}</style><radialGradient id="Adsız_degrade_4" cx="684.1" cy="1100.1" fx="684.1" fy="1100.1" r="2.7" gradientTransform="translate(41183.4 85965.2) rotate(-57.5) scale(73.4 -73.4)" gradientUnits="userSpaceOnUse"><stop offset="0" stop-color="#3f4495"/><stop offset="1" stop-color="#da738c"/></radialGradient></defs><g id="katman_1"><path class="cls-2" d="M254.8,11.6C236.7.2,213.3-2.3,193.1,2c-20.2,4.3-37.3,15.5-42.6,31.6-4.9,14.9-3.9,32.8-.2,50.9,3.6,18.1,9.8,36.5,15,52.7v.3c.1,0,0,0,0,0h0c-6.7-16.4-16.7-31.2-29.3-43.6-12.6-12.4-27.7-22.1-44.2-28.4h0s-.5-.1-.5-.1c-14.8-4.4-30.6-3.8-45,1.7-14.4,5.5-26.6,15.5-34.7,28.6h0C.2,113.7-2.3,137.1,2,157.3c4.3,20.2,15.5,37.3,31.6,42.6,14.9,4.9,33.5,3.9,52.3.4,18.8-3.5,37.9-9.6,54-14.8h0c-16.4,6.8-33.7,16.3-46.1,29-12.4,12.6-22.1,27.7-28.4,44.2v.5c-4.5,14.8-3.9,30.6,1.6,45,5.5,14.4,15.5,26.6,28.6,34.7,18.1,11.4,41.5,14,61.7,9.6,20.2-4.3,37.2-15.5,42.6-31.6,4.9-14.9,1.7-32.8-4-51-2.9-9.1-6.4-18.2-9.8-27.1-3.4-8.9-6.8-17.5-9.4-25.6h.1c0,0,0,0,0,0h0s0,0,0,0c0,0,0,0,0,0,0,0,.1.2.2.3.2.2.5.6.8,1,.7.9,1.7,2.1,3,3.7,2.5,3.1,6.1,7.4,10,12.1,7.8,9.3,17.3,20.2,23.6,26.4,12.6,12.4,27.7,22.1,44.2,28.4h0s.4.1.4.1h0c14.8,4.4,30.6,3.8,45-1.7,14.4-5.5,26.6-15.5,34.7-28.6h0c11.4-18.1,13.9-41.5,9.6-61.7-4.3-20.2-15.5-37.2-31.6-42.6-14.9-4.9-33.5-4-52.3-.5-18.8,3.5-37.9,9.5-54.1,14.7h0c16.4-6.8,33.7-16.2,46.1-28.8,12.4-12.6,22.1-27.7,28.4-44.2v-.5c4.5-14.8,3.9-30.6-1.6-45-5.5-14.4-15.5-26.6-28.6-34.7ZM183.4,160.2c4,2.2,6.9,5.9,8.2,10.2,1.3,4.4.8,9-1.4,13-2.2,4-5.9,6.9-10.2,8.2-4.4,1.3-9,.8-13-1.4-4-2.2-6.9-5.9-8.2-10.2-1.3-4.4-.8-9,1.4-13,2.2-4,5.9-6.9,10.2-8.2,4.4-1.3,9-.8,13,1.4Z"/><path class="cls-1" d="M251.4,48.4c1.3-2.3,4.2-3.2,6.3-1.5,1.9,1.5,3.5,3.1,5,5,2.5,3.1,4.3,6.7,5.4,10.5,1.1,3.8,1.4,7.8,1,11.8-.3,2.4-.8,4.7-1.6,6.9-.9,2.5-3.9,3.3-6.2,2-2.3-1.3-3.1-4.2-2.4-6.7.3-1.1.5-2.2.7-3.3.3-2.7,0-5.4-.7-8.1-.7-2.6-2-5.1-3.7-7.2-.7-.9-1.5-1.7-2.3-2.4-2-1.8-2.8-4.7-1.6-7Z"/><path class="cls-1" d="M207.8,31.9c-1.4-2.2-.8-5.2,1.7-6.3,2.2-.9,4.5-1.6,6.8-2,3.9-.7,7.9-.6,11.8.3,3.9.9,7.6,2.5,10.8,4.8,1.9,1.4,3.7,3,5.3,4.7,1.7,2,1.1,5-1.2,6.4-2.2,1.4-5.2.7-7.1-1.2-.8-.8-1.7-1.5-2.6-2.1-2.2-1.6-4.7-2.7-7.4-3.3-2.7-.6-5.4-.7-8.1-.2-1.1.2-2.2.5-3.2.8-2.5.9-5.5.3-6.9-2Z"/></g></svg>